<?xml version="1.0" standalone="no"?>
<!DOCTYPE svg PUBLIC "-//W3C//DTD SVG 20010904//EN"
 "http://www.w3.org/TR/2001/REC-SVG-20010904/DTD/svg10.dtd">
<svg version="1.0" xmlns="http://www.w3.org/2000/svg"
 width="512.000000pt" height="512.000000pt" viewBox="0 0 512.000000 512.000000"
 preserveAspectRatio="xMidYMid meet">
<metadata>
Created by potrace 1.14, written by Peter Selinger 2001-2017
</metadata>
<g transform="translate(0.000000,512.000000) scale(0.100000,-0.100000)"
fill="#000000" stroke="none">
<path d="M190 4621 c-19 -15 -25 -29 -25 -60 0 -76 0 -76 304 -79 l269 -3 8
-37 c4 -20 8 -41 10 -47 2 -5 5 -20 8 -33 3 -13 7 -31 10 -40 3 -9 7 -28 10
-42 2 -14 28 -122 56 -240 28 -118 64 -271 80 -340 16 -69 59 -251 95 -405 37
-154 68 -287 70 -295 18 -81 35 -153 91 -390 109 -462 152 -644 158 -675 6
-29 4 -32 -35 -49 -55 -25 -118 -88 -149 -151 -24 -47 -25 -60 -25 -215 0
-156 1 -168 25 -214 49 -97 141 -166 241 -181 l45 -7 -35 -70 c-31 -62 -35
-80 -37 -157 -3 -118 28 -201 106 -281 87 -90 153 -120 272 -126 92 -4 160 14
233 61 172 109 232 329 141 510 l-33 65 799 0 799 0 -19 -28 c-64 -88 -77
-245 -32 -362 35 -90 129 -185 219 -220 281 -108 574 109 547 403 -6 69 -36
156 -64 190 -14 16 -6 17 157 17 190 0 214 6 226 60 5 23 -10 74 -28 92 -1 2
-745 5 -1653 8 l-1651 5 -34 26 c-62 48 -68 70 -66 216 2 126 3 131 30 167 16
20 41 43 55 49 20 9 414 13 1589 17 1424 5 1564 6 1579 21 13 14 48 152 80
319 3 14 23 108 44 210 44 212 48 230 55 268 3 15 17 79 30 142 13 63 26 126
29 140 3 14 14 70 26 125 12 55 24 111 26 125 3 13 12 56 20 95 9 38 18 81 20
95 3 14 16 77 29 140 13 63 26 126 29 140 2 14 9 45 15 70 27 119 20 163 -26
181 -14 5 -805 9 -1943 9 l-1918 0 -26 108 c-33 139 -106 451 -112 477 -3 18
-16 71 -19 85 -1 3 -5 21 -9 40 -4 19 -16 46 -26 60 l-19 25 -313 3 c-296 2
-314 1 -338 -17z m1501 -953 c4 -40 7 -62 14 -110 4 -29 9 -71 11 -93 2 -22 7
-55 10 -72 l5 -33 -283 0 -283 0 -33 138 c-18 75 -35 147 -38 160 l-6 22 301
0 c233 0 301 -3 302 -12z m797 -91 c2 -56 5 -128 6 -159 l2 -58 -303 0 c-282
0 -303 1 -304 18 0 9 -2 26 -4 37 -3 11 -7 45 -10 75 -3 30 -8 66 -10 80 -2
14 -7 44 -10 68 l-6 42 318 0 318 0 3 -103z m785 6 c-3 -80 -8 -174 -12 -216
-1 -4 -137 -6 -303 -5 l-302 3 -3 70 c-1 39 -4 109 -6 158 l-3 87 316 0 317 0
-4 -97z m792 50 c-4 -27 -8 -55 -10 -63 -2 -8 -7 -46 -11 -85 -3 -38 -8 -77
-9 -85 -2 -8 -4 -21 -4 -28 -1 -10 -65 -12 -303 -10 l-303 3 4 105 c3 102 8
187 10 203 0 4 143 7 316 7 l316 0 -6 -47z m715 43 c0 -3 -35 -171 -46 -221
-2 -11 -7 -33 -10 -49 -2 -16 -7 -33 -10 -38 -4 -7 -524 -13 -524 -5 0 1 9 69
20 151 11 81 20 152 20 157 0 5 121 9 275 9 151 0 275 -2 275 -4z m-3029 -493
c0 -10 2 -27 4 -38 5 -28 14 -90 20 -150 3 -27 7 -65 11 -83 l5 -32 -258 2
-257 3 -18 75 c-10 41 -20 89 -23 105 -3 17 -10 44 -14 60 -5 17 -11 40 -14
53 l-5 22 274 0 c254 0 274 -1 275 -17z m756 -63 c1 -41 4 -112 6 -157 l4 -83
-283 0 -282 0 -7 48 c-7 52 -11 81 -20 157 -3 28 -8 65 -11 83 l-5 32 297 -2
298 -3 3 -75z m746 3 c-4 -95 -11 -225 -12 -236 -1 -4 -128 -6 -283 -5 l-282
3 -3 85 c-1 47 -4 115 -7 152 -2 37 -1 69 2 72 3 4 137 6 297 6 l292 0 -4 -77z
m752 30 c-4 -27 -8 -59 -11 -73 -2 -14 -7 -52 -10 -85 -4 -33 -8 -67 -10 -75
-1 -8 -3 -21 -3 -27 -1 -10 -65 -13 -284 -13 l-284 0 2 43 c2 23 4 95 6 159
l4 118 298 0 298 0 -6 -47z m675 43 c0 -3 -6 -36 -14 -73 -8 -38 -18 -82 -21
-98 -3 -17 -7 -34 -9 -40 -1 -5 -6 -31 -11 -57 l-7 -48 -244 0 -244 0 4 28 c5
28 12 87 21 170 3 26 8 64 11 85 l6 37 254 0 c140 0 254 -2 254 -4z m-2865
-523 c12 -86 13 -97 20 -158 3 -33 8 -72 11 -87 l6 -28 -231 0 -230 0 -10 38
c-6 20 -12 48 -15 62 -2 14 -14 63 -25 110 -12 47 -21 91 -21 98 0 9 55 12
244 12 l244 0 7 -47z m706 40 c3 -18 7 -96 10 -198 l4 -110 -262 -3 c-207 -2
-263 0 -264 10 0 7 -2 20 -4 29 -3 16 -12 90 -20 169 -3 25 -7 60 -10 78 l-6
32 276 0 c151 0 275 -3 276 -7z m712 -43 c-1 -25 -3 -96 -5 -158 l-3 -112
-264 2 -265 3 -3 85 c-2 47 -4 118 -6 158 l-4 72 276 -2 276 -3 -2 -45z m713
23 c-2 -16 -8 -55 -11 -88 -7 -67 -13 -112 -21 -168 l-6 -37 -261 2 -262 3 1
45 c1 25 3 90 5 145 1 55 4 106 7 113 3 9 68 12 279 12 l275 0 -6 -27z m629
-5 c-4 -18 -19 -89 -33 -158 l-27 -125 -222 -3 -221 -2 4 37 c4 43 11 99 24
193 5 36 10 71 10 78 0 9 54 12 235 12 l236 0 -6 -32z m-2704 -455 c1 -10 6
-52 15 -123 4 -30 8 -64 9 -75 2 -11 6 -42 9 -68 l7 -47 -206 0 c-113 0 -205
3 -205 8 0 4 -16 74 -35 157 -19 82 -35 151 -35 152 0 7 440 2 441 -4z m677
-101 c2 -59 5 -131 6 -159 l2 -53 -243 0 c-224 0 -243 1 -245 18 -4 45 -7 70
-12 102 -3 19 -8 58 -11 85 -3 28 -8 65 -11 83 l-5 32 258 0 258 0 3 -108z
m665 31 c-2 -43 -5 -114 -6 -158 l-3 -80 -244 -3 -245 -2 -3 107 c-2 60 -5
132 -6 161 l-3 52 257 0 257 0 -4 -77z m677 75 c0 -2 -9 -70 -20 -152 -11 -81
-20 -152 -20 -157 0 -6 -102 -8 -242 -7 l-243 3 4 95 c4 131 8 215 10 218 0 1
116 2 256 2 140 0 255 -1 255 -2z m586 -20 c-3 -13 -9 -45 -15 -73 -12 -59
-16 -80 -32 -162 l-13 -63 -203 0 c-112 0 -203 3 -203 8 0 4 4 34 10 67 5 33
12 87 15 120 3 33 7 69 10 80 2 11 4 26 4 33 1 9 51 12 216 12 l215 0 -4 -22z"/>
</g>
</svg>
